<?xml version="1.0" standalone="no"?>
<!DOCTYPE svg PUBLIC "-//W3C//DTD SVG 20010904//EN"
 "http://www.w3.org/TR/2001/REC-SVG-20010904/DTD/svg10.dtd">
<svg version="1.0" xmlns="http://www.w3.org/2000/svg"
 width="260.000000pt" height="260.000000pt" viewBox="0 0 260.000000 260.000000"
 preserveAspectRatio="xMidYMid meet">
<metadata>
Created by potrace 1.14, written by Peter Selinger 2001-2017
</metadata>
<g transform="translate(0.000000,260.000000) scale(0.100000,-0.100000)"
fill="#000000" stroke="none">
<path d="M167 2246 c-65 -183 -117 -337 -117 -340 0 -4 16 -6 36 -4 34 3 37 5
59 70 13 38 27 72 30 78 4 6 61 10 140 10 l133 0 27 -80 c26 -79 27 -80 61
-80 19 0 34 4 34 9 0 5 -45 139 -101 297 -56 159 -108 308 -116 332 -13 36
-19 42 -42 42 -28 0 -29 -5 -144 -334z m150 -124 c-60 -1 -112 -1 -114 2 -5 4
92 308 105 331 3 5 31 -67 62 -160 l57 -170 -110 -3z"/>
<path d="M680 2240 l0 -340 118 0 c184 0 249 29 296 129 18 41 21 64 21 206 0
188 -12 234 -76 288 -54 47 -97 57 -238 57 l-121 0 0 -340z m273 256 c75 -32
97 -88 97 -248 0 -145 -13 -199 -56 -237 -40 -36 -74 -43 -172 -39 l-73 3 0
263 c1 144 1 264 1 267 0 12 173 4 203 -9z"/>
<path d="M187 1695 c-163 -58 -164 -294 -1 -342 21 -7 64 -15 94 -19 70 -9
106 -27 125 -64 29 -56 12 -120 -42 -156 -21 -14 -46 -19 -99 -19 -63 0 -77 4
-123 33 l-53 32 -18 -22 c-17 -22 -17 -24 -2 -42 59 -67 224 -88 318 -41 91
46 127 145 86 238 -28 62 -77 93 -172 108 -96 14 -138 34 -157 74 -34 72 15
157 99 169 49 7 94 -3 142 -33 l33 -21 22 24 22 24 -30 21 c-69 49 -168 64
-244 36z"/>
<path d="M770 1701 c-73 -22 -119 -62 -146 -126 -13 -32 -17 -72 -17 -200 0
-182 9 -227 55 -274 118 -121 323 -82 374 71 12 39 15 82 12 216 -3 155 -5
170 -27 209 -50 86 -159 132 -251 104z m142 -86 c59 -40 70 -84 66 -268 -3
-168 -8 -184 -69 -230 -66 -48 -174 -19 -213 58 -18 35 -21 58 -21 190 0 129
3 155 20 190 42 83 142 111 217 60z"/>
<path d="M1210 1366 l0 -336 35 0 35 0 2 248 3 247 84 -192 c84 -192 85 -193
116 -193 32 0 32 1 110 183 43 100 82 186 87 192 4 5 8 -102 8 -238 l0 -247
35 0 35 0 0 336 0 335 -37 -3 -37 -3 -76 -176 c-41 -97 -85 -200 -97 -229 -13
-30 -25 -51 -28 -48 -4 3 -50 106 -104 229 l-98 224 -37 3 -36 3 0 -335z"/>
<path d="M1940 1365 l0 -335 200 0 200 0 0 35 0 35 -165 0 -165 0 0 120 0 120
140 0 140 0 0 30 0 30 -140 0 -140 0 0 120 0 120 165 0 165 0 0 30 0 30 -200
0 -200 0 0 -335z"/>
<path d="M820 809 c-56 -25 -86 -53 -113 -104 -18 -34 -22 -61 -25 -185 -5
-176 6 -232 53 -288 48 -55 107 -82 181 -82 74 0 127 24 176 77 50 56 61 113
56 293 -3 124 -7 151 -25 185 -41 77 -120 125 -208 125 -29 0 -69 -9 -95 -21z
m166 -133 l34 -34 0 -146 c0 -193 -16 -226 -107 -226 -88 0 -106 40 -101 235
l3 147 33 29 c46 42 93 40 138 -5z"/>
<path d="M1294 815 c-3 -6 -3 -156 -2 -335 l3 -325 63 -3 62 -3 0 335 0 334
-61 4 c-35 2 -63 -1 -65 -7z"/>
<path d="M1680 817 c-82 -26 -139 -128 -126 -224 13 -94 66 -138 192 -158 102
-17 124 -32 124 -86 0 -29 -6 -42 -27 -59 -40 -31 -153 -26 -202 9 l-33 24
-41 -41 c-40 -40 -41 -42 -22 -62 10 -11 42 -32 71 -46 48 -23 62 -26 147 -22
83 3 99 6 142 33 65 40 90 90 90 175 0 117 -54 169 -197 191 -83 12 -115 29
-124 63 -7 28 18 81 41 90 37 14 120 6 154 -15 l34 -21 41 42 41 41 -30 24
c-62 51 -188 70 -275 42z"/>
<path d="M42 488 l3 -333 63 -3 62 -3 0 203 c1 184 2 201 16 183 8 -11 65
-102 127 -202 l112 -183 58 0 57 0 0 335 0 335 -65 0 -65 0 -2 -196 -3 -196
-120 196 -120 196 -63 0 -62 0 2 -332z"/>
<path d="M2130 485 l0 -335 213 2 212 3 3 58 3 57 -151 0 -150 0 0 80 0 80
125 0 125 0 0 60 0 60 -125 0 -125 0 0 80 0 80 150 0 150 0 0 55 0 55 -215 0
-215 0 0 -335z"/>
</g>
</svg>
